<svg id="Layer_1" data-name="Layer 1" xmlns="http://www.w3.org/2000/svg" viewBox="0 0 300 300">
    <path  d="M293.13069,137.33245,161.07746,21.25587a17.17452,17.17452,0,0,0-10.85795-3.61931c-3.61932,0-7.75573.517-11.375,4.13634L6.27414,137.33239a16.805,16.805,0,0,0-5.1704,12.4091,16.34549,16.34549,0,0,0,16.54538,16.59712H34.24631v35.98632a13.53606,13.53606,0,0,0-.05175,1.44771v57.909a20.67607,20.67607,0,0,0,20.68178,20.68178H63.1491c.62045,0,1.24091-.05168,1.86131-.10336.77557.05168,1.55114.10336,2.32671.10336H96.24a20.67607,20.67607,0,0,0,20.68178-20.68178V233.47343a16.52762,16.52762,0,0,1,16.54544-16.54538h33.09089a16.52762,16.52762,0,0,1,16.54544,16.54538v15.79919l-.00007,12.409a20.6761,20.6761,0,0,0,20.68185,20.68178h29.213c.72389,0,1.44772,0,2.1716-.05168.56872.05168,1.13749.05168,1.7062.05168h8.27275a20.67608,20.67608,0,0,0,20.68179-20.68178v-8.32438a37.93848,37.93848,0,0,0,.25854-4.18809l-.36191-82.83058h16.54544a16.70505,16.70505,0,0,0,16.54544-16.59712C299.33521,145.08811,297.267,140.95171,293.13069,137.33245Zm-88.07862,14.81594a17.90492,17.90492,0,1,1-24.99725,22.737c-1.54411-3.64775-4.61005-6.98224-8.57107-6.98224H128.51621c-3.961,0-7.027,3.33449-8.57108,6.98224a17.90651,17.90651,0,1,1-24.99724-22.737,2.39012,2.39012,0,0,0,0-4.29678,17.90489,17.90489,0,1,1,24.99724-22.73691c1.54412,3.64775,4.61,6.98218,8.57108,6.98218h42.96754c3.961,0,7.027-3.33443,8.57107-6.98218a17.9065,17.9065,0,1,1,24.99725,22.73691,2.39012,2.39012,0,0,0,0,4.29678Z"/>
</svg>