<svg
  width="1000"
  height="1000"
  viewBox="0 0 1000 1000"
  xmlns="http://www.w3.org/2000/svg"
>
    <defs>
        <style>

            .rotateSvgMoldure{
                transform: rotate(180deg);
                transform-origin: 50% 50%;
            }
        </style>
        <clipPath id="shape">
            <path  fill="currentColor" d="M768,663.5Q827,827,663.5,899Q500,971,365.5,870Q231,769,149,634.5Q67,500,133,349.5Q199,199,349.5,104Q500,9,640,114.5Q780,220,744.5,360Q709,500,768,663.5Z"></path>
        </clipPath>
    </defs>
    <g class="rotateSvgMoldure"  clip-path="url(#shape)" >
        <path fill="#fff" stroke="none"   stroke-width="10" d="M768,663.5Q827,827,663.5,899Q500,971,365.5,870Q231,769,149,634.5Q67,500,133,349.5Q199,199,349.5,104Q500,9,640,114.5Q780,220,744.5,360Q709,500,768,663.5Z" />
    </g>
</svg>