<svg xmlns="http://www.w3.org/2000/svg" viewBox="0 0 300 300">
    <defs>
        <style>.PawsLoadClass-1{fill:#010101;}</style>
    </defs>
    <g id="PawSvgId_1" data-name="1">
        <path class="PawsLoadClass-1" d="M249.83041,150.86032c3.49807-.89381,6.20063-4.20985,7.20089-8.83412.86931-4.01466.28155-7.53459-1.674-10.0781a5.71464,5.71464,0,0,0-5.33893-2.34689,9.68575,9.68575,0,0,0-2.70939,1.333,12.15586,12.15586,0,0,0-4.37505,6.68163,13.8259,13.8259,0,0,0-.50734,4.36046,10.44181,10.44181,0,0,0,1.01088,5.0983,7.20389,7.20389,0,0,0,2.94155,3.23884A4.93363,4.93363,0,0,0,249.83041,150.86032Z"/>
        <path class="PawsLoadClass-1" d="M270.19082,150.97433c1.9876-.33,3.91814-2.18069,4.79985-4.60534a15.36072,15.36072,0,0,0,.22463-7.8324c-1.01478-4.20734-3.39973-7.27232-6.65736-8.55019a4.61007,4.61007,0,0,0-2.48708-.175c-2.46243.55035-4.32843,2.7776-5.074,6.07771a17.1162,17.1162,0,0,0-.15261,4.60136c.63782,4.91829,3.06551,8.66523,6.53925,10.1034a7.66352,7.66352,0,0,0,2.12442.4931C269.54281,151.08743,269.84935,151.03063,270.19082,150.97433Z"/>
        <path class="PawsLoadClass-1" d="M236.53193,133.84752c3.9288-.46841,7.32366-3.94061,8.589-8.7795a14.041,14.041,0,0,0,.45908-4.038,7.919,7.919,0,0,0-1.89755-4.78765,4.5734,4.5734,0,0,0-4.47574-1.61836c-3.72093.59365-7.03942,4.22417-8.15408,8.908a15.6528,15.6528,0,0,0-.37627,3.74212,7.49038,7.49038,0,0,0,3.15655,5.9411A4.56974,4.56974,0,0,0,236.53193,133.84752Z"/>
        <path class="PawsLoadClass-1" d="M282.88143,133.23814a5.377,5.377,0,0,0,3.557-2.58763,11.17388,11.17388,0,0,0,.7264-6.87313,14.72171,14.72171,0,0,0-2.29161-5.33484c-2.11657-2.8952-5.524-4.69932-7.92477-4.183a4.64545,4.64545,0,0,0-2.29041,1.35643c-1.40821,1.36022-1.963,2.90724-2.01812,5.562a13.10159,13.10159,0,0,0,2.50861,7.89736,14.44419,14.44419,0,0,0,2.80788,2.80892C279.79885,133.16822,281.252,133.56444,282.88143,133.23814Z"/>
        <path class="PawsLoadClass-1" d="M260.11374,121.77775a15.96591,15.96591,0,0,0,11.12232-6.93536,31.9856,31.9856,0,0,0,5.39952-11.16579,8.40343,8.40343,0,0,0,.447-2.57059,4.52543,4.52543,0,0,0-.178-1.61855,5.84863,5.84863,0,0,0-3.73278-4.11486,4.64282,4.64282,0,0,0-1.75235-.24323c-1.84278-.02613-2.912.22077-6.52941,1.52345-3.29243,1.17625-3.9851,1.35861-5.92693,1.54072-2.58909.24282-4.34782-.16648-8.37568-1.95319-3.35957-1.48023-4.12515-1.70073-5.68109-1.62671a5.49514,5.49514,0,0,0-3.83025,1.52678,4.88487,4.88487,0,0,0-1.46555,4.17218c.0915,2.78786,1.45252,5.98682,4.658,10.94152,2.58131,4.00244,4.929,6.61265,7.585,8.43232a11.99289,11.99289,0,0,0,4.227,1.91183A18.70075,18.70075,0,0,0,260.11374,121.77775Z"/>
    </g>
    <g id="PawSvgId_2" data-name="2">
        <path class="PawsLoadClass-1" d="M219.48551,220.31126c3.60382.21879,7.191-2.11189,9.55753-6.20872,2.05543-3.55647,2.5723-7.08751,1.48826-10.10722a5.71463,5.71463,0,0,0-4.36542-3.86721,9.68584,9.68584,0,0,0-2.98724.44058,12.15591,12.15591,0,0,0-6.20882,5.02355,13.82578,13.82578,0,0,0-1.81654,3.99641,10.44162,10.44162,0,0,0-.59671,5.16318,7.20385,7.20385,0,0,0,1.81011,3.98326A4.93367,4.93367,0,0,0,219.48551,220.31126Z"/>
        <path class="PawsLoadClass-1" d="M238.83557,226.64642c1.99328.29369,4.39732-.878,5.97829-2.91681a15.36075,15.36075,0,0,0,2.60917-7.38846c.32053-4.31612-1.01283-7.96362-3.72358-10.17652a4.61007,4.61007,0,0,0-2.3144-.92724c-2.51276-.22908-4.97049,1.32081-6.68964,4.23479a17.11648,17.11648,0,0,0-1.55247,4.33424c-.89686,4.87772.26864,9.18758,3.13612,11.61919a7.66364,7.66364,0,0,0,1.87184,1.11917C238.184,226.55593,238.49324,226.5956,238.83557,226.64642Z"/>
        <path class="PawsLoadClass-1" d="M212.027,200.04657c3.88382.75554,8.1779-1.51209,10.86246-5.73219a14.04116,14.04116,0,0,0,1.672-3.70409,7.91913,7.91913,0,0,0-.34248-5.1386,4.5734,4.5734,0,0,0-3.76638-2.90959c-3.72421-.57272-7.994,1.869-10.48764,5.98751a15.65291,15.65291,0,0,0-1.50266,3.44777,7.4904,7.4904,0,0,0,1.18841,6.62181A4.56963,4.56963,0,0,0,212.027,200.04657Z"/>
        <path class="PawsLoadClass-1" d="M256.34224,213.641a5.377,5.377,0,0,0,4.178-1.37585,11.17381,11.17381,0,0,0,2.79355-6.3217,14.72166,14.72166,0,0,0-.55033-5.78007c-1.12975-3.40379-3.82216-6.16352-6.26582-6.40618a4.64552,4.64552,0,0,0-2.59551.591c-1.75671.86439-2.758,2.16763-3.62239,4.67835a13.10172,13.10172,0,0,0-.02675,8.28619,14.4444,14.4444,0,0,0,1.81433,3.533C253.42873,212.63171,254.69112,213.45336,256.34224,213.641Z"/>
        <path class="PawsLoadClass-1" d="M238.17018,195.76684a15.96584,15.96584,0,0,0,12.71041-3.20167,31.98579,31.98579,0,0,0,8.55556-8.97957,8.40367,8.40367,0,0,0,1.21173-2.31073,4.52522,4.52522,0,0,0,.32555-1.59543,5.84863,5.84863,0,0,0-2.29553-5.05928,4.64256,4.64256,0,0,0-1.594-.76748c-1.7465-.58844-2.84-.68036-6.68248-.54637-3.49441.113-4.20966.0748-6.11415-.34566-2.53931-.56061-4.0886-1.48815-7.37706-4.42106-2.74594-2.43674-3.4074-2.88081-4.91143-3.28617a5.49514,5.49514,0,0,0-4.11366.28227,4.88485,4.88485,0,0,0-2.67127,3.5241c-.76547,2.68228-.448,6.14421,1.0887,11.84184,1.23361,4.6001,2.6706,7.80324,4.6428,10.348a11.99277,11.99277,0,0,0,3.43979,3.11293A18.70016,18.70016,0,0,0,238.17018,195.76684Z"/>
    </g>
    <g id="PawSvgId_3" data-name="3">
        <path class="PawsLoadClass-1" d="M155.03845,243.1462c-.49058,3.577,1.56226,7.33007,5.46846,9.99949,3.3909,2.31838,6.87276,3.10067,9.96576,2.248a5.71468,5.71468,0,0,0,4.18612-4.06062,9.68543,9.68543,0,0,0-.21351-3.012,12.15573,12.15573,0,0,0-4.53981-6.57077,13.82588,13.82588,0,0,0-3.84764-2.11343,10.44161,10.44161,0,0,0-5.10329-.98528,7.20374,7.20374,0,0,0-4.10867,1.50385A4.93363,4.93363,0,0,0,155.03845,243.1462Z"/>
        <path class="PawsLoadClass-1" d="M147.25873,261.962c-.44352,1.96537.543,4.45109,2.45655,6.18166a15.36059,15.36059,0,0,0,7.17006,3.16018c4.27952.64586,8.01736-.408,10.42883-2.9437a4.61012,4.61012,0,0,0,1.09954-2.23768c.41836-2.48826-.9413-5.05612-3.717-6.9906a17.11607,17.11607,0,0,0-4.20446-1.87565c-4.796-1.263-9.18157-.4266-11.823,2.24887a7.66329,7.66329,0,0,0-1.25746,1.78189C147.39822,261.31917,147.33529,261.62452,147.25873,261.962Z"/>
        <path class="PawsLoadClass-1" d="M175.80888,237.24082c-1.047,3.8156.88957,8.2688,4.89465,11.26467a14.04139,14.04139,0,0,0,3.56709,1.94718,7.919,7.919,0,0,0,5.14976.04691,4.57342,4.57342,0,0,0,3.186-3.53567c.8526-3.67025-1.25936-8.11239-5.17758-10.91021a15.65258,15.65258,0,0,0-3.3243-1.759,7.49037,7.49037,0,0,0-6.69267.68448A4.56963,4.56963,0,0,0,175.80888,237.24082Z"/>
        <path class="PawsLoadClass-1" d="M158.90354,280.40166a5.377,5.377,0,0,0,1.05609,4.27,11.17377,11.17377,0,0,0,6.09241,3.2634,14.72185,14.72185,0,0,0,5.80512-.11185c3.47943-.86923,6.43478-3.34533,6.86147-5.76366a4.64554,4.64554,0,0,0-.39311-2.63276c-.72912-1.817-1.95293-2.914-4.39111-3.96565a13.10162,13.10162,0,0,0-8.26043-.653,14.4445,14.4445,0,0,0-3.66007,1.54209C160.13017,277.57278,159.21544,278.76944,158.90354,280.40166Z"/>
        <path class="PawsLoadClass-1" d="M178.10013,263.63267a15.96587,15.96587,0,0,0,2.2317,12.91606,31.98534,31.98534,0,0,0,8.30711,9.20982,8.40334,8.40334,0,0,0,2.21251,1.38293,4.52518,4.52518,0,0,0,1.56625.44521,5.84861,5.84861,0,0,0,5.21831-1.90654,4.64287,4.64287,0,0,0,.88577-1.53143c.71878-1.697.89309-2.78044,1.04995-6.62207.15145-3.49294.24363-4.20327.80684-6.07052.751-2.48966,1.793-3.96442,4.966-7.02178,2.63733-2.55388,3.13013-3.17989,3.648-4.649a5.49505,5.49505,0,0,0,.0295-4.12322,4.88478,4.88478,0,0,0-3.31207-2.93c-2.61673-.966-6.09274-.91111-11.89021.19047-4.68017.88237-7.98276,2.07313-10.66928,3.84733a11.99288,11.99288,0,0,0-3.364,3.19466A18.70065,18.70065,0,0,0,178.10013,263.63267Z"/>
    </g>
    <g id="PawSvgId_4" data-name="4">
        <path class="PawsLoadClass-1" d="M93.12345,203.2509a8.01255,8.01255,0,0,0-3.10767,3.14156,13.681,13.681,0,0,0-1.43526,8.8533,12.03042,12.03042,0,0,0,2.61441,6.29068,6.96107,6.96107,0,0,0,1.97453,1.75687,5.55716,5.55716,0,0,0,4.399.87351,4.60613,4.60613,0,0,0,2.07323-1.163c2.67623-2.32756,3.95675-6.335,3.43857-10.7107a16.92352,16.92352,0,0,0-1.82448-5.63666,7.66754,7.66754,0,0,0-5.697-3.895A5.36966,5.36966,0,0,0,93.12345,203.2509Z"/>
        <path class="PawsLoadClass-1" d="M72.98492,208.72285a7.48685,7.48685,0,0,0-3.0584,6.35707,15.02519,15.02519,0,0,0,.21536,1.96461,14.6089,14.6089,0,0,0,6.5522,10.04175,9.4871,9.4871,0,0,0,4.30836,1.29351,5.45533,5.45533,0,0,0,4.60887-3.61677,10.38672,10.38672,0,0,0,.17826-6.54711,15.35334,15.35334,0,0,0-1.53408-3.87165c-2.06275-3.718-5.05694-5.93472-8.45254-6.236A5.605,5.605,0,0,0,72.98492,208.72285Z"/>
        <path class="PawsLoadClass-1" d="M109.78323,216.48917a9.72434,9.72434,0,0,0-4.40137,4.98827,14.32523,14.32523,0,0,0-.89326,7.06414,8.60129,8.60129,0,0,0,.73458,3.03973,7.7149,7.7149,0,0,0,2.99841,3.60427,4.65766,4.65766,0,0,0,2.52136.76c2.00628.01742,4.23872-1.43887,5.71614-3.72945a13.91084,13.91084,0,0,0,1.8724-5.95369,14.68465,14.68465,0,0,0-.68812-5.49531,7.15522,7.15522,0,0,0-4.03547-4.48345A4.58443,4.58443,0,0,0,109.78323,216.48917Z"/>
        <path class="PawsLoadClass-1" d="M66.26234,228.743a5.3602,5.3602,0,0,0-3.39586,4.86562,11.78416,11.78416,0,0,0,.92541,4.80325,13.23933,13.23933,0,0,0,5.35158,6.31,9.96237,9.96237,0,0,0,4.71426,1.505,4.59986,4.59986,0,0,0,4.62154-2.583c.84422-1.56009.96061-2.96957.43759-5.36024a9.44369,9.44369,0,0,0-.73-2.28347,13.00963,13.00963,0,0,0-5.33724-6.04317,9.9694,9.9694,0,0,0-4.58324-1.55664A7.28471,7.28471,0,0,0,66.26234,228.743Z"/>
        <path class="PawsLoadClass-1" d="M90.934,233.984a16.06357,16.06357,0,0,0-8.74014,8.77923,35.25284,35.25284,0,0,0-2.50124,9.83005,23.35767,23.35767,0,0,0,.095,5.85483,6.15667,6.15667,0,0,0,4.84683,4.48274,6.06561,6.06561,0,0,0,2.71826-.30046,18.85159,18.85159,0,0,0,5.23567-2.966,20.64353,20.64353,0,0,1,5.36409-3.09813c2.46851-.95777,4.26023-1.03861,8.39085-.40285,3.6514.5603,4.45235.58931,5.83142.23559,2.58048-.66187,4.29765-2.54506,4.38555-4.80387a9.98824,9.98824,0,0,0-.87954-3.53457,24.08445,24.08445,0,0,0-4.742-6.04256c-4.72426-4.53221-8.07077-6.85692-11.70746-8.13335a11.532,11.532,0,0,0-4.65216-.70037A17.10978,17.10978,0,0,0,90.934,233.984Z"/>
    </g>
    <g id="PawSvgId_5" data-name="5">
        <path class="PawsLoadClass-1" d="M48.3532,140.44914c-3.56674.56014-6.56981,3.6067-8.00145,8.11612-1.24382,3.91485-.99043,7.47451.71672,10.191a5.71463,5.71463,0,0,0,5.094,2.83964,9.68554,9.68554,0,0,0,2.823-1.07173,12.15584,12.15584,0,0,0,4.98532-6.23953,13.82605,13.82605,0,0,0,.916-4.29324,10.44184,10.44184,0,0,0-.52586-5.17088,7.20379,7.20379,0,0,0-2.6232-3.50166A4.93363,4.93363,0,0,0,48.3532,140.44914Z"/>
        <path class="PawsLoadClass-1" d="M28.09417,138.41667c-2.00984.14116-4.10622,1.80169-5.21253,4.13245a15.3607,15.3607,0,0,0-.96184,7.77636c.61373,4.28425,2.69919,7.56037,5.82187,9.13959a4.61014,4.61014,0,0,0,2.45951.40866c2.50334-.31582,4.57095-2.35728,5.62429-5.57243a17.11638,17.11638,0,0,0,.58561-4.56649c-.17143-4.95651-2.23517-8.91558-5.55789-10.67475a7.66336,7.66336,0,0,0-2.06849-.69113C28.75,138.36514,28.43943,138.3928,28.09417,138.41667Z"/>
        <path class="PawsLoadClass-1" d="M59.989,158.6396c-3.95545.096-7.66246,3.2328-9.37825,7.9309a14.04109,14.04109,0,0,0-.83762,3.9767,7.91912,7.91912,0,0,0,1.43787,4.94519,4.5734,4.5734,0,0,0,4.30328,2.033c3.76032-.24031,7.40622-3.5419,8.95736-8.09979a15.65262,15.65262,0,0,0,.72729-3.69,7.49036,7.49036,0,0,0-2.58255-6.21216A4.56964,4.56964,0,0,0,59.989,158.6396Z"/>
        <path class="PawsLoadClass-1" d="M13.78843,154.87781a5.377,5.377,0,0,0-3.78508,2.24086,11.17381,11.17381,0,0,0-1.371,6.77407,14.72182,14.72182,0,0,0,1.77861,5.52708c1.83427,3.08179,5.05646,5.199,7.49523,4.91132a4.64553,4.64553,0,0,0,2.40807-1.13453c1.53013-1.22143,2.22826-2.70927,2.53334-5.347a13.10163,13.10163,0,0,0-1.75311-8.09864,14.4443,14.4443,0,0,0-2.53064-3.061C16.85069,155.238,15.44132,154.70653,13.78843,154.87781Z"/>
        <path class="PawsLoadClass-1" d="M35.37462,168.433a15.96588,15.96588,0,0,0-11.72647,5.85621,31.98571,31.98571,0,0,0-6.42787,10.60718,8.40366,8.40366,0,0,0-.6873,2.517,4.5255,4.5255,0,0,0,.02462,1.62812,5.84863,5.84863,0,0,0,3.32834,4.44836,4.643,4.643,0,0,0,1.72162.40731c1.83212.19969,2.91984.05467,6.64393-.90127,3.38863-.86071,4.09541-.977,6.04575-.97525,2.60046.00229,4.31279.57552,8.15431,2.7339,3.20511,1.79028,3.9465,2.082,5.50248,2.15491a5.49506,5.49506,0,0,0,3.9571-1.159,4.88484,4.88484,0,0,0,1.85226-4.01547c.17166-2.78408-.8818-6.09707-3.606-11.33184-2.19259-4.22791-4.28385-7.04777-6.75646-9.10966a11.99283,11.99283,0,0,0-4.028-2.30172A18.70132,18.70132,0,0,0,35.37462,168.433Z"/>
    </g>
    <g id="PawSvgId_6" data-name="6">
        <path class="PawsLoadClass-1" d="M73.19285,65.47387c-3.56715-.55747-7.358,1.42474-10.10016,5.28028-2.38147,3.34691-3.22884,6.81353-2.43423,9.922A5.71463,5.71463,0,0,0,64.64,84.93755a9.68549,9.68549,0,0,0,3.01546-.15708,12.15579,12.15579,0,0,0,6.65465-4.416,13.826,13.826,0,0,0,2.18512-3.80741,10.44184,10.44184,0,0,0,1.08069-5.084A7.20384,7.20384,0,0,0,76.14924,67.337,4.93363,4.93363,0,0,0,73.19285,65.47387Z"/>
        <path class="PawsLoadClass-1" d="M54.526,57.34316c-1.95672-.48025-4.46048.45961-6.22658,2.34037a15.36073,15.36073,0,0,0-3.29392,7.10966c-.72589,4.26669.25775,8.02363,2.74787,10.48217a4.6101,4.6101,0,0,0,2.2167,1.14125c2.48.46488,5.07285-.84646,7.059-3.58545a17.1161,17.1161,0,0,0,1.95407-4.16862c1.35259-4.77148.59849-9.172-2.027-11.86305a7.66293,7.66293,0,0,0-1.758-1.2906C55.16615,57.49466,54.862,57.426,54.526,57.34316Z"/>
        <path class="PawsLoadClass-1" d="M78.70819,86.35131c-3.79532-1.11822-8.284.73459-11.35436,4.68289a14.041,14.041,0,0,0-2.01365,3.53,7.91912,7.91912,0,0,0-.14336,5.148,4.57339,4.57339,0,0,0,3.47539,3.25162c3.65364.92118,8.13455-1.10724,11.00527-4.9724a15.65285,15.65285,0,0,0,1.82093-3.29079,7.49042,7.49042,0,0,0-.559-6.70434A4.56965,4.56965,0,0,0,78.70819,86.35131Z"/>
        <path class="PawsLoadClass-1" d="M35.87153,68.6407a5.37692,5.37692,0,0,0-4.289.976,11.17385,11.17385,0,0,0-3.37694,6.03026,14.72211,14.72211,0,0,0,.00311,5.80621c.80391,3.49511,3.22423,6.49632,5.63415,6.96822a4.64539,4.64539,0,0,0,2.63965-.34374c1.83036-.695,2.95006-1.898,4.0472-4.3161a13.10174,13.10174,0,0,0,.80761-8.24679A14.445,14.445,0,0,0,39.864,71.82639C38.67694,69.92008,37.49761,68.98311,35.87153,68.6407Z"/>
        <path class="PawsLoadClass-1" d="M52.27805,88.148a15.96581,15.96581,0,0,0-12.95559,1.98947,31.98546,31.98546,0,0,0-9.36379,8.13323,8.40344,8.40344,0,0,0-1.42413,2.18623,4.52556,4.52556,0,0,0-.47447,1.55765,5.8486,5.8486,0,0,0,1.80847,5.25311,4.64276,4.64276,0,0,0,1.51458.9143c1.68326.75043,2.76322.945,6.60124,1.17376,3.4895.21684,4.198.3223,6.05435.92038,2.47517.79745,3.93015,1.86688,6.92754,5.09667,2.504,2.6847,3.12071,3.18914,4.57984,3.73445a5.49509,5.49509,0,0,0,4.12195.1067,4.88483,4.88483,0,0,0,2.99152-3.25664c1.01488-2.5982,1.02507-6.07464.03225-11.89174-.79456-4.69589-1.92325-8.02021-3.64683-10.73949a11.99289,11.99289,0,0,0-3.13109-3.42328A18.70051,18.70051,0,0,0,52.27805,88.148Z"/>
    </g>
    <g id="PawSvgId_7" data-name="7">
        <path class="PawsLoadClass-1" d="M150.96153,27.91584c-2.8771-2.18121-7.15464-2.232-11.39631-.13611-3.68307,1.81885-6.07191,4.47-6.8451,7.58387a5.71463,5.71463,0,0,0,1.48686,5.63927,9.68547,9.68547,0,0,0,2.72986,1.29056,12.1558,12.1558,0,0,0,7.95263-.73545,13.826,13.826,0,0,0,3.72837-2.31741,10.44168,10.44168,0,0,0,3.36068-3.96488,7.20387,7.20387,0,0,0,.7036-4.3183A4.93363,4.93363,0,0,0,150.96153,27.91584Z"/>
        <path class="PawsLoadClass-1" d="M138.37614,11.91063c-1.49554-1.3501-4.14572-1.70887-6.59215-.88952a15.36082,15.36082,0,0,0-6.26954,4.7c-2.661,3.41331-3.575,7.18778-2.54717,10.53272a4.61,4.61,0,0,0,1.41126,2.05538c1.9636,1.58452,4.86828,1.65837,7.91514.18753a17.11608,17.11608,0,0,0,3.69606-2.745c3.452-3.56087,4.87317-7.79333,3.83625-11.40718a7.66307,7.66307,0,0,0-.93658-1.96956C138.86805,12.34736,138.63278,12.14282,138.37614,11.91063Z"/>
        <path class="PawsLoadClass-1" d="M145.92563,48.91406c-2.81231-2.78312-7.643-3.27848-12.21769-1.25648A14.04123,14.04123,0,0,0,130.262,49.812a7.919,7.919,0,0,0-2.56561,4.46543,4.57338,4.57338,0,0,0,1.51966,4.5102c2.78092,2.54248,7.688,2.87951,12.04747.83612a15.65267,15.65267,0,0,0,3.16285-2.035,7.49043,7.49043,0,0,0,2.68457-6.16877A4.56969,4.56969,0,0,0,145.92563,48.91406Z"/>
        <path class="PawsLoadClass-1" d="M116.59557,13.01987a5.377,5.377,0,0,0-4.2394-1.17292,11.17387,11.17387,0,0,0-5.83118,3.71012,14.72213,14.72213,0,0,0-2.74853,5.11446c-.94821,3.45874-.239,7.24849,1.65959,8.806a4.64546,4.64546,0,0,0,2.48737.9481c1.94114.25533,3.49722-.27353,5.60917-1.883a13.10175,13.10175,0,0,0,4.61891-6.87947,14.44465,14.44465,0,0,0,.45034-3.94606C118.45979,15.47585,117.86526,14.09192,116.59557,13.01987Z"/>
        <path class="PawsLoadClass-1" d="M121.79974,37.97232a15.96579,15.96579,0,0,0-12.35146-4.38706A31.98532,31.98532,0,0,0,97.34855,36.3104a8.40319,8.40319,0,0,0-2.29,1.25039,4.52519,4.52519,0,0,0-1.15592,1.14684,5.84862,5.84862,0,0,0-.89662,5.48286,4.64275,4.64275,0,0,0,.9005,1.52282c1.12671,1.45845,1.98553,2.14152,5.25691,4.16162,2.97013,1.84444,3.544,2.273,4.89537,3.67934,1.80178,1.87509,2.57629,3.50628,3.68539,7.77076.93293,3.5507,1.23695,4.28712,2.26347,5.45873a5.49507,5.49507,0,0,0,3.57925,2.04714,4.8848,4.8848,0,0,0,4.17751-1.45028c2.12485-1.80709,3.78113-4.86363,5.66327-10.45664,1.52545-4.51173,2.10674-7.974,1.87747-11.18531A11.993,11.993,0,0,0,124.17,41.24045,18.70077,18.70077,0,0,0,121.79974,37.97232Z"/>
    </g>
    <g id="PawSvgId_8" data-name="8">
        <path class="PawsLoadClass-1" d="M202.838,91.34344a8.01266,8.01266,0,0,0,2.79774-3.42048,13.68107,13.68107,0,0,0,.59445-8.94916,12.0305,12.0305,0,0,0-3.19568-6.01628,6.96119,6.96119,0,0,0-2.13132-1.56294,5.55712,5.55712,0,0,0-4.46175-.455,4.60593,4.60593,0,0,0-1.95439,1.35319c-2.445,2.56943-3.34206,6.67974-2.41378,10.9871a16.92333,16.92333,0,0,0,2.34761,5.43962,7.66756,7.66756,0,0,0,6.03873,3.3407A5.36989,5.36989,0,0,0,202.838,91.34344Z"/>
        <path class="PawsLoadClass-1" d="M222.37119,83.99778a7.48685,7.48685,0,0,0,2.44563-6.617,15.02323,15.02323,0,0,0-.39957-1.93557,14.60891,14.60891,0,0,0-7.46947-9.37951,9.48714,9.48714,0,0,0-4.41109-.88169,5.45536,5.45536,0,0,0-4.24748,4.03506,10.38677,10.38677,0,0,0,.43961,6.53477,15.35356,15.35356,0,0,0,1.89215,3.70983c2.404,3.507,5.59378,5.43168,9.00266,5.41159A5.60488,5.60488,0,0,0,222.37119,83.99778Z"/>
        <path class="PawsLoadClass-1" d="M185.0047,79.73428a9.72446,9.72446,0,0,0,3.91164-5.38089,14.32538,14.32538,0,0,0,.22348-7.11689,8.60158,8.60158,0,0,0-1.0178-2.957,7.71493,7.71493,0,0,0-3.32478-3.30562,4.65768,4.65768,0,0,0-2.58176-.51895c-1.999.17175-4.08424,1.832-5.33919,4.2516a13.91083,13.91083,0,0,0-1.30293,6.10366,14.68463,14.68463,0,0,0,1.203,5.406,7.15518,7.15518,0,0,0,4.44007,4.08315A4.58439,4.58439,0,0,0,185.0047,79.73428Z"/>
        <path class="PawsLoadClass-1" d="M227.177,63.43315a5.36021,5.36021,0,0,0,2.92215-5.164,11.78418,11.78418,0,0,0-1.374-4.69465,13.23932,13.23932,0,0,0-5.92248-5.77752,9.96249,9.96249,0,0,0-4.83513-1.054A4.59988,4.59988,0,0,0,213.61,49.75011c-.69342,1.63271-.67645,3.04689.06956,5.37762a9.44365,9.44365,0,0,0,.94193,2.20451,13.0096,13.0096,0,0,0,5.883,5.51323,9.96951,9.96951,0,0,0,4.70956,1.11774A7.28459,7.28459,0,0,0,227.177,63.43315Z"/>
        <path class="PawsLoadClass-1" d="M202.1211,60.54083a16.06355,16.06355,0,0,0,7.87379-9.56391,35.2524,35.2524,0,0,0,1.56362-10.022,23.35751,23.35751,0,0,0-.64643-5.81981,6.15664,6.15664,0,0,0-5.24775-4.006,6.06571,6.06571,0,0,0-2.67785.55531,18.85147,18.85147,0,0,0-4.93281,3.44626,20.64364,20.64364,0,0,1-5.04822,3.5899c-2.36725,1.18617-4.14337,1.43552-8.31553,1.1919-3.688-.21366-4.48807-.16705-5.82767.31507-2.50661.90214-4.03864,2.93879-3.91326,5.19583a9.98824,9.98824,0,0,0,1.20875,3.43594,24.08463,24.08463,0,0,0,5.29036,5.56873c5.13039,4.06677,8.68111,6.06573,12.42192,6.99371a11.53187,11.53187,0,0,0,4.69746.25879A17.10939,17.10939,0,0,0,202.1211,60.54083Z"/>
    </g>
</svg>