<svg xmlns="http://www.w3.org/2000/svg" viewBox="0 0 300 300">
    <defs>
        <style>
            .FavicoSvg-1{
                fill:#f23d3c;
                stroke: #fff;
                stroke-width: 5px;
            }
            .FavicoSvg-2{
                fill:#fff;
                stroke: #222;
                stroke-width: 2px;
            }
            @media (prefers-color-scheme: dark) {
                .FavicoSvg-1 { fill: #f23d3c 
                
                }
                .FavicoSvg-2 {  }
            }

        </style>
    </defs>
    <g id="Layer_1" data-name="Layer 1">
        <path class="FavicoSvg-1" d="M38.10489,171.11432l97.0223,90.5792a21.82429,21.82429,0,0,0,29.74563,0l97.02229-90.5792a80.32219,80.32219,0,0,0,25.55762-58.79325v-3.11416A76.74824,76.74824,0,0,0,156.4431,54.92383L150,61.36692l-6.4431-6.44309A76.74824,76.74824,0,0,0,12.54727,109.20691v3.11417a80.32224,80.32224,0,0,0,25.55762,58.79326Z"/>
    </g>
    <g id="Layer_2" data-name="Layer 2">
        <path class="FavicoSvg-2" d="M156.80919,128.10915c12.4252-2.16045,20.58,4.40015,27.1391,13.66948a34.41741,34.41741,0,0,1,6.51893,23.47161c-.42561,4.73559-1.9637,9.07349-5.45151,12.44493-4.66207,4.50651-10.25356,5.2308-16.284,3.524a29.0447,29.0447,0,0,1-13.99582-9.3413,37.63514,37.63514,0,0,1-9.20768-19.13259c-1.3925-8.89078-.18059-16.97608,7.4989-22.92108Z"/>
        <path class="FavicoSvg-2" d="M183.1817,263.73087a27.29014,27.29014,0,0,1-1.646-19.43178c1.46318-5.0562,3.24074-10.02356,4.95036-15.00577a83.28167,83.28167,0,0,0,4.24063-19.44129c.55851-6.05538,1.36675-12.05261,3.85846-17.68892,5.8902-13.32374,17.72451-18.177,31.38305-12.91238a51.22734,51.22734,0,0,1,12.47771,7.014c7.29093,5.50681,15.41143,9.37266,23.90115,12.6291a90.33884,90.33884,0,0,1,13.31327,6.083c5.64527,3.30213,8.85889,8.75111,10.96006,14.82565a37.54124,37.54124,0,0,1,2.34824,15.004,21.85309,21.85309,0,0,1-15.391,19.36995,79.61962,79.61962,0,0,1-18.562,3.583c-8.06343.66136-14.68588,4.02934-20.57108,9.39978A154.59661,154.59661,0,0,1,221.96265,277.512a24.49914,24.49914,0,0,1-15.27115,5.22687c-6.71074-.15647-12.11774-3.169-16.32994-8.1512-2.7898-3.29975-5.05991-7.03886-7.56267-10.58129Z"/>
        <path class="FavicoSvg-2" d="M198.33113,146.23351c-3.68982-9.19394-4.69157-19.55-.00422-29.88261,2.93159-6.46227,7.59578-11.07285,15.16031-11.49215,5.77248-.32,10.41216,2.3195,14.23179,6.37856,7.60623,8.083,10.23507,17.914,9.59484,28.76126a28.69218,28.69218,0,0,1-4.69126,14.56918c-6.53774,9.7351-17.57187,11.01645-26.29589,3.12378A34.08557,34.08557,0,0,1,198.33113,146.23351Z"/>
        <path class="FavicoSvg-2" d="M171.94983,202.83831a28.60941,28.60941,0,0,1,2.50049,11.13365c.08947,10.5773-7.81733,17.21336-18.17953,15.12583-8.03588-1.61887-14.02418-6.358-18.73965-12.84107a28.59043,28.59043,0,0,1-5.84986-15.76268c-.52413-12.12125,8.60257-19.19243,20.22821-15.67583,7.44769,2.25283,13.028,6.98882,17.32451,13.33837C170.24265,199.64721,171.04992,201.27411,171.94983,202.83831Z"/>
        <path class="FavicoSvg-2" d="M251.44173,166.98969c-3.7125-9.19779-4.45353-18.11042-.46477-26.98571,2.56745-5.71279,6.69372-9.7912,13.36486-10.06508,5.45655-.224,9.62212,2.5433,13.12418,6.47258,7.85485,8.813,9.941,23.79822,4.797,34.44411-5.35238,11.077-17.27679,12.81509-25.71835,3.73111a23.36513,23.36513,0,0,1-2.48582-3.09962C253.04623,169.93359,252.18484,168.28155,251.44173,166.98969Z"/>
    </g>
</svg>