<svg xmlns="http://www.w3.org/2000/svg" viewBox="0 0 300 300">
    
    <g id="Layer_2" data-name="Layer 2">
        <path  d="M175.77246,242.63086c1.25195-4.3252,2.72461-8.585,4.14844-12.7041l.89062-2.58106a77.73033,77.73033,0,0,0,3.94043-18.04492c.54883-5.95117,1.38282-12.86035,4.34473-19.56348,7.14355-16.15625,22.46094-22.46972,39.0293-16.085a57.49605,57.49605,0,0,1,13.93652,7.82422c1.5827,1.19556,3.26379,2.33765,5.045,3.4433l5.82758-5.44061c-.265-.26331-.528-.531-.78571-.80835a28.87143,28.87143,0,0,1-3.11523-3.9043c-.83887-1.28711-1.54492-2.55469-2.168-3.67285-.21777-.3916-.42676-.7666-.626-1.11328l-.207-.36035-.15527-.38574c-4.65332-11.52833-4.77539-21.89454-.374-31.68995,4.85742-10.80957,12.791-13.3623,18.59179-13.60058,6.69629-.27881,12.52246,2.498,17.84961,8.47558A31.75066,31.75066,0,0,1,284.105,135.171,80.24617,80.24617,0,0,0,287.4527,112.321v-3.11413A76.74818,76.74818,0,0,0,156.44312,54.92383L150,61.36688l-6.44312-6.443A76.74818,76.74818,0,0,0,12.5473,109.20691V112.321a80.32212,80.32212,0,0,0,25.55756,58.79328l97.02234,90.57916a21.82423,21.82423,0,0,0,29.7456,0l9.60712-8.96911A32.72506,32.72506,0,0,1,175.77246,242.63086Zm-15.74707-7.14648a25.02167,25.02167,0,0,1-4.94043-.50489c-8.82812-1.77929-16.36719-6.89062-22.40625-15.19336a34.60911,34.60911,0,0,1-6.99121-19.0332c-.335-7.74023,2.53125-14.55371,7.86328-18.69336,5.2522-4.07727,12.42523-5.18884,19.73413-3.08374a42.9548,42.9548,0,0,1-3.06909-3.15259,43.66616,43.66616,0,0,1-10.61523-22.14941c-1.97852-12.62891,1.21289-21.98242,9.7539-28.59424l.55567-.42969,5.11914-2.3208.75195-.13086c19.29492-3.35449,29.6582,11.29981,33.06543,16.11524.51038.72131.98645,1.45135,1.44684,2.18536a41.63829,41.63829,0,0,1,2.56976-26.62677c5.33789-11.76758,13.98145-14.6543,20.292-15.00391,7.04883-.397,13.40918,2.3877,18.9336,8.25733,8.22656,8.74267,12,19.92187,11.21386,33.22656a34.678,34.678,0,0,1-5.69824,17.56006c-4.12988,6.14941-9.99414,9.97559-16.51269,10.77539a20.959,20.959,0,0,1-2.55567.15527,24.26388,24.26388,0,0,1-16.23437-6.70215,35.37,35.37,0,0,1-6.4491-7.84942,40.25415,40.25415,0,0,1,.58972,11.49689c-.59961,6.68847-3.041,12.14648-7.25683,16.2207a20.85915,20.85915,0,0,1-14.78614,6.05566,26.53719,26.53719,0,0,1-6.73138-.93048,43.49211,43.49211,0,0,1,6.53509,7.66c.84473,1.248,1.51661,2.4707,2.166,3.65234.25781.46777.51465.93555.78027,1.39746l.31543.63086a34.41233,34.41233,0,0,1,2.98536,13.44629c.05957,6.99316-2.56934,13.042-7.40137,17.03222A20.15871,20.15871,0,0,1,160.02539,235.48438Z"/>
        <path  d="M156.80919,128.10915c12.4252-2.16045,20.58,4.40015,27.1391,13.66948a34.41741,34.41741,0,0,1,6.51893,23.47161c-.42561,4.73559-1.9637,9.07349-5.45151,12.44493-4.66207,4.50651-10.25356,5.2308-16.284,3.524a29.0447,29.0447,0,0,1-13.99582-9.3413,37.63514,37.63514,0,0,1-9.20768-19.13259c-1.3925-8.89078-.18059-16.97608,7.4989-22.92108Z"/>
        <path  d="M183.1817,263.73087a27.29014,27.29014,0,0,1-1.646-19.43178c1.46318-5.0562,3.24074-10.02356,4.95036-15.00577a83.28167,83.28167,0,0,0,4.24063-19.44129c.55851-6.05538,1.36675-12.05261,3.85846-17.68892,5.8902-13.32374,17.72451-18.177,31.38305-12.91238a51.22734,51.22734,0,0,1,12.47771,7.014c7.29093,5.50681,15.41143,9.37266,23.90115,12.6291a90.33884,90.33884,0,0,1,13.31327,6.083c5.64527,3.30213,8.85889,8.75111,10.96006,14.82565a37.54124,37.54124,0,0,1,2.34824,15.004,21.85309,21.85309,0,0,1-15.391,19.36995,79.61962,79.61962,0,0,1-18.562,3.583c-8.06343.66136-14.68588,4.02934-20.57108,9.39978A154.59661,154.59661,0,0,1,221.96265,277.512a24.49914,24.49914,0,0,1-15.27115,5.22687c-6.71074-.15647-12.11774-3.169-16.32994-8.1512-2.7898-3.29975-5.05991-7.03886-7.56267-10.58129Z"/>
        <path  d="M198.33113,146.23351c-3.68982-9.19394-4.69157-19.55-.00422-29.88261,2.93159-6.46227,7.59578-11.07285,15.16031-11.49215,5.77248-.32,10.41216,2.3195,14.23179,6.37856,7.60623,8.083,10.23507,17.914,9.59484,28.76126a28.69218,28.69218,0,0,1-4.69126,14.56918c-6.53774,9.7351-17.57187,11.01645-26.29589,3.12378A34.08557,34.08557,0,0,1,198.33113,146.23351Z"/>
        <path  d="M171.94983,202.83831a28.60941,28.60941,0,0,1,2.50049,11.13365c.08947,10.5773-7.81733,17.21336-18.17953,15.12583-8.03588-1.61887-14.02418-6.358-18.73965-12.84107a28.59043,28.59043,0,0,1-5.84986-15.76268c-.52413-12.12125,8.60257-19.19243,20.22821-15.67583,7.44769,2.25283,13.028,6.98882,17.32451,13.33837C170.24265,199.64721,171.04992,201.27411,171.94983,202.83831Z"/>
        <path  d="M251.44173,166.98969c-3.7125-9.19779-4.45353-18.11042-.46477-26.98571,2.56745-5.71279,6.69372-9.7912,13.36486-10.06508,5.45655-.224,9.62212,2.5433,13.12418,6.47258,7.85485,8.813,9.941,23.79822,4.797,34.44411-5.35238,11.077-17.27679,12.81509-25.71835,3.73111a23.36513,23.36513,0,0,1-2.48582-3.09962C253.04623,169.93359,252.18484,168.28155,251.44173,166.98969Z"/>
    </g>
</svg>