<svg id="Layer_1" data-name="Layer 1" xmlns="http://www.w3.org/2000/svg" viewBox="0 0 300 300">
   
    <path d="M196.00529,3.74317A41.77923,41.77923,0,0,0,176.28522,15.66c-10.20727,10.423-16.48216,24.92977-18.55369,42.92728-1.49781,13.21327.18573,24.68371,5.19,35.13947a36.29638,36.29638,0,0,0,7.74052,11.40168c6.44716,6.67014,13.51936,10.05878,21.125,10.02963,4.23546-.01624,7.23813-.84752,11.96548-3.23389,16.50017-8.35211,28.08782-26.97815,31.05187-49.76112,1.194-9.2954.322-22.90948-2.031-30.825C228.98949,18.46384,219.88688,8.16041,208.942,4.37673,205.56731,3.20554,198.9167,2.86669,196.00529,3.74317Z"/>
    <path d="M87.21005,5.70863C76.15717,9.39445,67.04485,20.3142,63.63582,33.94469a78.33816,78.33816,0,0,0-1.41825,10.20712c-1.73579,22.41391,6.04821,45.15569,20.31127,59.12833,5.66875,5.58009,13.70275,10.37688,20.13071,12.03734,9.20885,2.37849,21.30275-2.99642,27.916-12.40367,6.34156-8.99631,9.30721-19.48262,9.25588-32.87213a80.05645,80.05645,0,0,0-2.81515-21.53115c-5.684-21.42907-17.99272-36.4567-34.77508-42.313C98.13677,4.75588,90.80337,4.51073,87.21005,5.70863Z"/>
    <path d="M263.33749,91.93c-10.55732,2.27208-21.32262,9.69134-28.61708,19.60218-7.24874,9.9562-11.62359,21.13106-13.53041,34.57361-1.06387,7.6098-1.09788,10.61578-.16521,16.30511,1.49176,8.96629,5.16468,16.649,10.55948,22.048a24.28567,24.28567,0,0,0,11.77722,7.0596c10.12075,2.64826,23.26544-1.86536,33.65767-11.56035,6.71655-6.21962,13.86792-17.815,17.06355-27.71014,2.97107-9.07448,4.3839-20.69342,3.53358-28.66022a46.991,46.991,0,0,0-7.31949-20.37531,47.04407,47.04407,0,0,0-7.361-7.44087C277.72859,91.78378,270.43619,90.35435,263.33749,91.93Z"/>
    <path d="M27.67586,98.344c-11.60654,1.82067-20.36727,9.41442-23.37707,20.26524A61.4439,61.4439,0,0,0,2.848,144.07346c2.28956,15.11157,8.94544,28.70349,19.00339,38.73,6.90329,6.85056,13.2489,10.7885,21.913,13.62452,10.25982,3.28533,19.31354.83684,26.66087-7.16139,6.25886-6.80993,8.6459-13.78719,9.05244-26.54085a49.24088,49.24088,0,0,0-.77653-12.47586,67.83393,67.83393,0,0,0-19.2714-37.36266c-6.94919-6.94148-14.98476-12.14815-21.18466-13.7184A37.98342,37.98342,0,0,0,27.67586,98.344Z"/>
    <path d="M145.71849,156.32351c-21.44007,2.81477-42.29661,15.28246-55.38979,33.23113-11.1,15.16289-19.64726,30.90806-25.18928,46.50509-3.74005,10.44373-7.01157,24.3014-6.99079,29.721.04714,12.29649,7.9728,24.47169,18.78332,28.84795a31.62741,31.62741,0,0,0,14.12588,1.94976c8.696-.71648,14.61043-2.33316,30.25437-8.31374,16.7354-6.39465,21.0574-7.59534,31.07222-8.81785,13.702-1.69207,22.86342.18563,42.935,8.67082,17.745,7.49217,21.75733,8.66091,29.18077,8.63246,13.89048-.05324,24.97493-7.38264,28.30177-18.69011,1.16839-4.10337,1.22037-14.30525.06382-18.99176-2.91458-11.83007-8.19755-23.6966-16.26263-36.6-18.10054-28.94166-32.05266-44.96494-48.80956-56.0588a60.12935,60.12935,0,0,0-22.62577-9.47735A89.21152,89.21152,0,0,0,145.71849,156.32351Z"/>
</svg>