<svg id="Layer_1" data-name="Layer 1" xmlns="http://www.w3.org/2000/svg" viewBox="0 0 300 300">
    <defs>
        <style>.RaffleIconSvgClass-2{opacity:0.5}</style>
    </defs>
    <g >
        <path class="RaffleIconSvgClass-2" d="M40.495,88.24861A6.08715,6.08715,0,0,0,38.45668,90.916a10.39329,10.39329,0,0,0-.22648,6.80982,9.13943,9.13943,0,0,0,2.57757,4.48771,5.2883,5.2883,0,0,0,1.65754,1.13315,4.2217,4.2217,0,0,0,3.39913.23336,3.49911,3.49911,0,0,0,1.44992-1.07655c1.79183-2.01234,2.3697-5.15574,1.55665-8.40289a12.85691,12.85691,0,0,0-1.91918-4.07118,5.825,5.825,0,0,0-4.669-2.38477A4.07951,4.07951,0,0,0,40.495,88.24861Z"/>
        <path class="RaffleIconSvgClass-2" d="M25.84852,94.3168a5.68772,5.68772,0,0,0-1.69064,5.0856,11.41437,11.41437,0,0,0,.352,1.45959,11.09826,11.09826,0,0,0,5.90708,6.93393,7.20735,7.20735,0,0,0,3.37138.55861,4.1444,4.1444,0,0,0,3.12362-3.17046,7.89069,7.89069,0,0,0-.498-4.95063,11.66378,11.66378,0,0,0-1.52988-2.76924c-1.91343-2.6024-4.38371-3.98358-6.97149-3.88267A4.258,4.258,0,0,0,25.84852,94.3168Z"/>
        <path class="RaffleIconSvgClass-2" d="M54.32711,96.615a7.38758,7.38758,0,0,0-2.83479,4.18387,10.88274,10.88274,0,0,0,.00914,5.40929,6.53431,6.53431,0,0,0,.8471,2.21958,5.86088,5.86088,0,0,0,2.60748,2.42633,3.53839,3.53839,0,0,0,1.97331.32916,5.58741,5.58741,0,0,0,3.94709-3.3623,10.56806,10.56806,0,0,0,.83591-4.66709,11.15592,11.15592,0,0,0-1.04925-4.07441,5.43567,5.43567,0,0,0-3.47384-2.98866A3.48279,3.48279,0,0,0,54.32711,96.615Z"/>
        <path class="RaffleIconSvgClass-2" d="M22.71637,110.05177a4.0721,4.0721,0,0,0-2.089,3.99434,8.95218,8.95218,0,0,0,1.16121,3.53,10.05785,10.05785,0,0,0,4.642,4.23791,7.5684,7.5684,0,0,0,3.69768.67877,3.49448,3.49448,0,0,0,3.233-2.39273,5.27748,5.27748,0,0,0-.18794-4.08135,7.17446,7.17446,0,0,0-.77058-1.65016,9.88325,9.88325,0,0,0-4.60539-4.03823A7.5738,7.5738,0,0,0,24.19341,109.6,5.534,5.534,0,0,0,22.71637,110.05177Z"/>
        <path class="RaffleIconSvgClass-2" d="M41.81334,111.61824a12.20336,12.20336,0,0,0-5.73806,7.45949,26.78111,26.78111,0,0,0-.93539,7.64877,17.74513,17.74513,0,0,0,.63706,4.4026,4.67719,4.67719,0,0,0,4.08516,2.90977,4.608,4.608,0,0,0,2.01926-.48892,14.32142,14.32142,0,0,0,3.65877-2.74061,15.68267,15.68267,0,0,1,3.74279-2.85257c1.76758-.96011,3.10989-1.19406,6.28383-1.11393,2.80554.06956,3.41188.01407,4.41689-.38566a4.07819,4.07819,0,0,0,2.84069-4.04339,7.588,7.588,0,0,0-1.00412-2.57845,18.29688,18.29688,0,0,0-4.15677-4.09528c-3.99757-2.95888-6.74377-4.38742-9.6074-4.998a8.76049,8.76049,0,0,0-3.57317-.07845A12.99828,12.99828,0,0,0,41.81334,111.61824Z"/>
    </g>
    <g >
        <path class="RaffleIconSvgClass-2" d="M112.77378,157.40872a6.08714,6.08714,0,0,0-2.03832,2.66738,10.39339,10.39339,0,0,0-.22648,6.80981,9.13943,9.13943,0,0,0,2.57757,4.48771,5.28837,5.28837,0,0,0,1.65753,1.13315,4.2217,4.2217,0,0,0,3.39913.23336,3.499,3.499,0,0,0,1.44992-1.07655c1.79183-2.01234,2.36971-5.15573,1.55666-8.40288a12.85691,12.85691,0,0,0-1.91918-4.07118,5.825,5.825,0,0,0-4.669-2.38477A4.07926,4.07926,0,0,0,112.77378,157.40872Z"/>
        <path class="RaffleIconSvgClass-2" d="M98.12731,163.4769a5.68767,5.68767,0,0,0-1.69064,5.08559,11.41393,11.41393,0,0,0,.352,1.45959,11.09822,11.09822,0,0,0,5.90707,6.93393,7.20726,7.20726,0,0,0,3.37139.55861,4.14436,4.14436,0,0,0,3.12361-3.17045,7.89072,7.89072,0,0,0-.498-4.95064,11.66391,11.66391,0,0,0-1.52988-2.76923c-1.91342-2.6024-4.3837-3.98358-6.97148-3.88268A4.25812,4.25812,0,0,0,98.12731,163.4769Z"/>
        <path class="RaffleIconSvgClass-2" d="M126.60589,165.77515a7.38748,7.38748,0,0,0-2.8348,4.18387,10.8827,10.8827,0,0,0,.00914,5.40928,6.53432,6.53432,0,0,0,.84709,2.21958,5.86093,5.86093,0,0,0,2.60748,2.42633,3.53831,3.53831,0,0,0,1.97331.32916,5.58742,5.58742,0,0,0,3.94709-3.36229,10.568,10.568,0,0,0,.83591-4.66709,11.15572,11.15572,0,0,0-1.04924-4.07441,5.43569,5.43569,0,0,0-3.47383-2.98866A3.48275,3.48275,0,0,0,126.60589,165.77515Z"/>
        <path class="RaffleIconSvgClass-2" d="M94.99514,179.21186a4.07209,4.07209,0,0,0-2.089,3.99433,8.95224,8.95224,0,0,0,1.16121,3.53,10.05785,10.05785,0,0,0,4.642,4.23792,7.56852,7.56852,0,0,0,3.69768.67877,3.49451,3.49451,0,0,0,3.233-2.39273,5.27742,5.27742,0,0,0-.18793-4.08135,7.1741,7.1741,0,0,0-.77059-1.65016,9.88318,9.88318,0,0,0-4.60538-4.03823,7.57376,7.57376,0,0,0-3.60393-.73034A5.53422,5.53422,0,0,0,94.99514,179.21186Z"/>
        <path class="RaffleIconSvgClass-2" d="M114.09211,180.77834a12.20333,12.20333,0,0,0-5.73807,7.45948,26.78107,26.78107,0,0,0-.93539,7.64877,17.74409,17.74409,0,0,0,.63706,4.40259,4.67714,4.67714,0,0,0,4.08514,2.90977,4.60788,4.60788,0,0,0,2.01927-.48892,14.32125,14.32125,0,0,0,3.65877-2.7406,15.68267,15.68267,0,0,1,3.74279-2.85257c1.76758-.96011,3.10989-1.19406,6.28383-1.11393,2.80553.06956,3.41188.01407,4.41689-.38566a4.07817,4.07817,0,0,0,2.84069-4.04338,7.58791,7.58791,0,0,0-1.00412-2.57845,18.29661,18.29661,0,0,0-4.15676-4.09528c-3.99757-2.95889-6.74377-4.38742-9.6074-4.998a8.76062,8.76062,0,0,0-3.57316-.07846A12.9973,12.9973,0,0,0,114.09211,180.77834Z"/>
    </g>
    <path  d="M0,0V300H300V0ZM72,279.99994H12v-60H72Zm0-70H12v-60H72Zm0-70H12v-60H72Zm0-70H12v-60H72Zm72,210H84v-60h60Zm0-70H84v-60h60Zm0-70H84v-60h60Zm0-70H84v-60h60Zm72,210H156v-60h60Zm0-70H156v-60h60Zm0-70H156v-60h60Zm0-70H156v-60h60Zm72,210H228v-60h60Zm0-70H228v-60h60Zm0-70H228v-60h60Zm0-70H228v-60h60Z"/>
    <g >
        <path class="RaffleIconSvgClass-2" d="M184.77378,17.40872a6.08714,6.08714,0,0,0-2.03832,2.66738,10.39339,10.39339,0,0,0-.22648,6.80981,9.13943,9.13943,0,0,0,2.57757,4.48771,5.28837,5.28837,0,0,0,1.65753,1.13315,4.2217,4.2217,0,0,0,3.39913.23336,3.499,3.499,0,0,0,1.44992-1.07655c1.79183-2.01234,2.36971-5.15573,1.55666-8.40288a12.85691,12.85691,0,0,0-1.91918-4.07118,5.825,5.825,0,0,0-4.669-2.38477A4.07926,4.07926,0,0,0,184.77378,17.40872Z"/>
        <path class="RaffleIconSvgClass-2" d="M170.12731,23.4769a5.68767,5.68767,0,0,0-1.69064,5.08559,11.41393,11.41393,0,0,0,.352,1.45959,11.09822,11.09822,0,0,0,5.90707,6.93393,7.20726,7.20726,0,0,0,3.37139.55861,4.14436,4.14436,0,0,0,3.12361-3.17045,7.89072,7.89072,0,0,0-.498-4.95064,11.66391,11.66391,0,0,0-1.52988-2.76923c-1.91342-2.6024-4.3837-3.98358-6.97148-3.88268A4.25812,4.25812,0,0,0,170.12731,23.4769Z"/>
        <path class="RaffleIconSvgClass-2" d="M198.60589,25.77515a7.38748,7.38748,0,0,0-2.8348,4.18387,10.8827,10.8827,0,0,0,.00914,5.40928,6.53432,6.53432,0,0,0,.84709,2.21958,5.86093,5.86093,0,0,0,2.60748,2.42633,3.53831,3.53831,0,0,0,1.97331.32916,5.58742,5.58742,0,0,0,3.94709-3.36229,10.568,10.568,0,0,0,.83591-4.66709,11.15572,11.15572,0,0,0-1.04924-4.07441,6.84638,6.84638,0,0,0-2.079-2.37231,6.8535,6.8535,0,0,0-1.39485-.61635A3.48275,3.48275,0,0,0,198.60589,25.77515Z"/>
        <path class="RaffleIconSvgClass-2" d="M166.99514,39.21186a4.07209,4.07209,0,0,0-2.089,3.99433,8.95224,8.95224,0,0,0,1.16121,3.53,10.05785,10.05785,0,0,0,4.642,4.23792,7.56852,7.56852,0,0,0,3.69768.67877,3.49451,3.49451,0,0,0,3.233-2.39273,5.27742,5.27742,0,0,0-.18793-4.08135,7.1741,7.1741,0,0,0-.77059-1.65016,9.88318,9.88318,0,0,0-4.60538-4.03823,7.57376,7.57376,0,0,0-3.60393-.73034A5.53422,5.53422,0,0,0,166.99514,39.21186Z"/>
        <path class="RaffleIconSvgClass-2" d="M186.09211,40.77834a12.20333,12.20333,0,0,0-5.73807,7.45948,26.78107,26.78107,0,0,0-.93539,7.64877,17.74409,17.74409,0,0,0,.63706,4.40259,4.67714,4.67714,0,0,0,4.08514,2.90977,4.60788,4.60788,0,0,0,2.01927-.48892,14.32125,14.32125,0,0,0,3.65877-2.7406,15.68267,15.68267,0,0,1,3.74279-2.85257c1.76758-.96011,3.10989-1.19406,6.28383-1.11393,2.80553.06956,3.41188.01407,4.41689-.38566a4.07817,4.07817,0,0,0,2.84069-4.04338,7.58791,7.58791,0,0,0-1.00412-2.57845,18.29661,18.29661,0,0,0-4.15676-4.09528c-3.99757-2.95889-6.74377-4.38742-9.6074-4.998a8.76062,8.76062,0,0,0-3.57316-.07846A12.9973,12.9973,0,0,0,186.09211,40.77834Z"/>
    </g>
    <g >
        <path class="RaffleIconSvgClass-2" d="M108.82513,88.61806a6.08714,6.08714,0,0,0-2.03832,2.66738,10.39339,10.39339,0,0,0-.22648,6.80981,9.13943,9.13943,0,0,0,2.57757,4.48771,5.28853,5.28853,0,0,0,1.65753,1.13315,4.2217,4.2217,0,0,0,3.39913.23336,3.49911,3.49911,0,0,0,1.44992-1.07655c1.79183-2.01234,2.36971-5.15573,1.55666-8.40288a12.85691,12.85691,0,0,0-1.91918-4.07118,5.82493,5.82493,0,0,0-4.669-2.38477A4.07926,4.07926,0,0,0,108.82513,88.61806Z"/>
        <path class="RaffleIconSvgClass-2" d="M94.17866,94.68624A5.68767,5.68767,0,0,0,92.488,99.77183a11.41393,11.41393,0,0,0,.352,1.45959,11.09824,11.09824,0,0,0,5.90707,6.93393,7.20726,7.20726,0,0,0,3.37139.55861,4.14436,4.14436,0,0,0,3.12361-3.17045,7.89072,7.89072,0,0,0-.498-4.95064,11.66391,11.66391,0,0,0-1.52988-2.76923c-1.91342-2.60241-4.3837-3.98358-6.97148-3.88268A4.25812,4.25812,0,0,0,94.17866,94.68624Z"/>
        <path class="RaffleIconSvgClass-2" d="M122.65724,96.98449a7.38748,7.38748,0,0,0-2.8348,4.18387,10.8827,10.8827,0,0,0,.00914,5.40928,6.53432,6.53432,0,0,0,.84709,2.21958,5.86093,5.86093,0,0,0,2.60748,2.42633,3.5384,3.5384,0,0,0,1.97331.32916,5.58742,5.58742,0,0,0,3.94709-3.36229,10.568,10.568,0,0,0,.83591-4.6671,11.15566,11.15566,0,0,0-1.04924-4.0744,5.43577,5.43577,0,0,0-3.47383-2.98867A3.48279,3.48279,0,0,0,122.65724,96.98449Z"/>
        <path class="RaffleIconSvgClass-2" d="M91.04649,110.4212a4.07209,4.07209,0,0,0-2.089,3.99433,8.95224,8.95224,0,0,0,1.16121,3.53,10.0579,10.0579,0,0,0,4.642,4.23792,7.56839,7.56839,0,0,0,3.69768.67876,3.49448,3.49448,0,0,0,3.233-2.39273,5.2774,5.2774,0,0,0-.18793-4.08134,7.1741,7.1741,0,0,0-.77059-1.65016,9.88318,9.88318,0,0,0-4.60538-4.03823,7.57364,7.57364,0,0,0-3.60393-.73034A5.53422,5.53422,0,0,0,91.04649,110.4212Z"/>
        <path class="RaffleIconSvgClass-2" d="M110.14346,111.98768a12.20333,12.20333,0,0,0-5.73807,7.45948,26.78107,26.78107,0,0,0-.93539,7.64877,17.74409,17.74409,0,0,0,.63706,4.40259,4.67714,4.67714,0,0,0,4.08514,2.90977,4.608,4.608,0,0,0,2.01927-.48892,14.32125,14.32125,0,0,0,3.65877-2.7406,15.68267,15.68267,0,0,1,3.74279-2.85257c1.76758-.96011,3.10989-1.19406,6.28383-1.11393,2.80553.06956,3.41188.01407,4.41689-.38566a4.07817,4.07817,0,0,0,2.84069-4.04339,7.588,7.588,0,0,0-1.00412-2.57845,18.29679,18.29679,0,0,0-4.15676-4.09527c-3.99757-2.95889-6.74377-4.38742-9.6074-4.998a8.76062,8.76062,0,0,0-3.57316-.07846A12.9973,12.9973,0,0,0,110.14346,111.98768Z"/>
    </g>
    <g >
        <path class="RaffleIconSvgClass-2" d="M256.77378,227.40872a6.08714,6.08714,0,0,0-2.03832,2.66738,10.39339,10.39339,0,0,0-.22648,6.80981,9.13943,9.13943,0,0,0,2.57757,4.48771,5.28837,5.28837,0,0,0,1.65753,1.13315,4.2217,4.2217,0,0,0,3.39913.23336,3.499,3.499,0,0,0,1.44992-1.07655c1.79183-2.01234,2.36971-5.15573,1.55666-8.40288a12.85691,12.85691,0,0,0-1.91918-4.07118,5.825,5.825,0,0,0-4.669-2.38477A4.07926,4.07926,0,0,0,256.77378,227.40872Z"/>
        <path class="RaffleIconSvgClass-2" d="M242.12731,233.4769a5.68767,5.68767,0,0,0-1.69064,5.08559,11.41393,11.41393,0,0,0,.352,1.45959,11.09822,11.09822,0,0,0,5.90707,6.93393,7.20726,7.20726,0,0,0,3.37139.55861,4.14436,4.14436,0,0,0,3.12361-3.17045,7.89072,7.89072,0,0,0-.498-4.95064,11.66391,11.66391,0,0,0-1.52988-2.76923c-1.91342-2.6024-4.3837-3.98358-6.97148-3.88268A4.25812,4.25812,0,0,0,242.12731,233.4769Z"/>
        <path class="RaffleIconSvgClass-2" d="M270.60589,235.77515a7.38748,7.38748,0,0,0-2.8348,4.18387,10.8827,10.8827,0,0,0,.00914,5.40928,6.53432,6.53432,0,0,0,.84709,2.21958,5.86093,5.86093,0,0,0,2.60748,2.42633,3.53831,3.53831,0,0,0,1.97331.32916,5.58742,5.58742,0,0,0,3.94709-3.36229,10.568,10.568,0,0,0,.83591-4.66709,11.15572,11.15572,0,0,0-1.04924-4.07441,5.43569,5.43569,0,0,0-3.47383-2.98866A3.48275,3.48275,0,0,0,270.60589,235.77515Z"/>
        <path class="RaffleIconSvgClass-2" d="M238.99514,249.21186a4.07209,4.07209,0,0,0-2.089,3.99433,8.95224,8.95224,0,0,0,1.16121,3.53,10.05785,10.05785,0,0,0,4.642,4.23792,7.56852,7.56852,0,0,0,3.69768.67877,3.49451,3.49451,0,0,0,3.233-2.39273,5.27742,5.27742,0,0,0-.18793-4.08135,7.1741,7.1741,0,0,0-.77059-1.65016,9.88318,9.88318,0,0,0-4.60538-4.03823,7.57376,7.57376,0,0,0-3.60393-.73034A5.53422,5.53422,0,0,0,238.99514,249.21186Z"/>
        <path class="RaffleIconSvgClass-2" d="M258.09211,250.77834a12.20333,12.20333,0,0,0-5.73807,7.45948,26.78107,26.78107,0,0,0-.93539,7.64877,17.74409,17.74409,0,0,0,.63706,4.40259,4.67714,4.67714,0,0,0,4.08514,2.90977,4.60788,4.60788,0,0,0,2.01927-.48892,14.32125,14.32125,0,0,0,3.65877-2.7406,15.68267,15.68267,0,0,1,3.74279-2.85257c1.76758-.96011,3.10989-1.19406,6.28383-1.11393,2.80553.06956,3.41188.01407,4.41689-.38566a4.07817,4.07817,0,0,0,2.84069-4.04338,7.58791,7.58791,0,0,0-1.00412-2.57845,18.29661,18.29661,0,0,0-4.15676-4.09528c-3.99757-2.95889-6.74377-4.38742-9.6074-4.998a8.76062,8.76062,0,0,0-3.57316-.07846A12.9973,12.9973,0,0,0,258.09211,250.77834Z"/>
    </g>
</svg>