<svg xmlns="http://www.w3.org/2000/svg" viewBox="0 0 200 100">
    <g id="Layer_5" data-name="Layer 5">
        <path  d="M200,35V0H0V35A15,15,0,0,1,15,50,15,15,0,0,1,0,65v35H200V65a15,15,0,0,1,0-30ZM165,87.5H35v-75H165Z"/>
        <path  d="M98.39456,17.25813a8.82109,8.82109,0,0,0-2.96911,3.85372,15.06145,15.06145,0,0,0-.36726,9.86708A13.24435,13.24435,0,0,0,98.76775,37.497a7.6634,7.6634,0,0,0,2.39551,1.6516,6.11793,6.11793,0,0,0,4.9245.35768,5.07071,5.07071,0,0,0,2.10732-1.55176c2.60817-2.9059,3.46362-7.4578,2.304-12.16805a18.63141,18.63141,0,0,0-2.75782-5.91072,8.44137,8.44137,0,0,0-6.7524-3.48265A5.91167,5.91167,0,0,0,98.39456,17.25813Z"/>
        <path  d="M77.13486,25.96779a8.2423,8.2423,0,0,0-2.47915,7.36005,16.54121,16.54121,0,0,0,.50175,2.11717,16.08309,16.08309,0,0,0,8.52047,10.08214,10.44446,10.44446,0,0,0,4.88243.82883c1.99419-.23641,3.963-2.21933,4.54476-4.57652a11.43475,11.43475,0,0,0-.69326-7.177,16.90277,16.90277,0,0,0-2.20115-4.02179c-2.7579-3.78223-6.32979-5.79791-10.08044-5.66652A6.17048,6.17048,0,0,0,77.13486,25.96779Z"/>
        <path  d="M118.39138,29.46161a10.70562,10.70562,0,0,0-4.132,6.04676,15.77073,15.77073,0,0,0-.01777,7.83887,9.46941,9.46941,0,0,0,1.21484,3.22135,8.49344,8.49344,0,0,0,3.76471,3.53105,5.12762,5.12762,0,0,0,2.85773.4883c2.19428-.25308,4.43576-2.1469,5.73919-4.8498a15.31458,15.31458,0,0,0,1.23813-6.75848,16.16627,16.16627,0,0,0-1.49715-5.91041,9.92145,9.92145,0,0,0-2.99914-3.44974,9.93307,9.93307,0,0,0-2.01782-.90119A5.047,5.047,0,0,0,118.39138,29.46161Z"/>
        <path  d="M72.50567,48.752a5.90108,5.90108,0,0,0-3.05012,5.77638,12.973,12.973,0,0,0,1.66252,5.12213,14.57527,14.57527,0,0,0,6.70259,6.168,10.96786,10.96786,0,0,0,5.35459,1.00484,5.06406,5.06406,0,0,0,4.69881-3.44887c.71073-1.81894.64671-3.37461-.24895-5.91552a10.39682,10.39682,0,0,0-1.10723-2.39574,14.32227,14.32227,0,0,0-6.65074-5.87838,10.9754,10.9754,0,0,0-5.21844-1.079A8.01955,8.01955,0,0,0,72.50567,48.752Z"/>
        <path  d="M100.171,51.13159a17.68453,17.68453,0,0,0-8.35807,10.777,38.8095,38.8095,0,0,0-1.39938,11.07879,25.71446,25.71446,0,0,0,.89794,6.38363,6.77794,6.77794,0,0,0,5.9033,4.2401,6.67782,6.67782,0,0,0,2.929-.69694c1.65649-.80624,2.69673-1.57685,5.31781-3.95054,2.8042-2.53868,3.56289-3.1056,5.4402-4.11232,2.567-1.38119,4.51355-1.71253,9.1126-1.57819,4.06524.11689,4.94424.03994,6.40294-.53355,2.72946-1.07311,4.35009-3.36343,4.13976-5.84315a10.99611,10.99611,0,0,0-1.44033-3.7423,26.51477,26.51477,0,0,0-6.00028-5.95846c-5.77611-4.31077-9.74757-6.39668-13.89389-7.29794a12.69575,12.69575,0,0,0-5.1776-.13419A18.83623,18.83623,0,0,0,100.171,51.13159Z"/>
    </g>
</svg>