<svg xmlns="http://www.w3.org/2000/svg" viewBox="0 0 200 100">
    <defs>
        <style>.SvgTicketClass-1{fill:#f49fc5;stroke:#6a1b47;stroke-miterlimit:10;stroke-width:0.5px;}.SvgTicketClass-2{fill:#fff;}.SvgTicketClass-3{font-size:7.11121px;}.SvgTicketClass-3,.SvgTicketClass-4{fill:#992963;}.SvgTicketClass-10,.SvgTicketClass-3{font-family:Poppins-Bold, Poppins;font-weight:700;}.SvgTicketClass-4{font-size:12px;font-family:Pacifico-Regular, Pacifico;}.SvgTicketClass-5{letter-spacing:-0.01001em;}.SvgTicketClass-6{letter-spacing:-0.01497em;}.SvgTicketClass-7{letter-spacing:-0.01994em;}.SvgTicketClass-8{letter-spacing:-0.00004em;}.SvgTicketClass-9{fill:#999;}.SvgTicketClass-10{font-size:48.6304px;fill:#6a1a47;}</style>
    </defs>
    <g id="Layer_1" data-name="Layer 1">
        <path class="SvgTicketClass-1" d="M185,50a15,15,0,0,1,15-15V0H0V35A15,15,0,0,1,15,50,15,15,0,0,1,0,65v35H200V65A15,15,0,0,1,185,50Z"/>
    </g>
    <g id="Layer_2" data-name="Layer 2">
        <rect class="SvgTicketClass-2" x="35" y="12.5" width="130" height="75"/>
    </g>
    <g id="Layer_3" data-name="Layer 3">
        <text class="SvgTicketClass-3" transform="translate(36.581 84.4752)" id="OptText"></text>
        <text class="SvgTicketClass-4" transform="translate(60.23249 26.09684)">R
            <tspan class="SvgTicketClass-5" x="10.56006" y="0">i</tspan>
            <tspan class="SvgTicketClass-6" x="13.3916" y="0">f</tspan>
            <tspan x="17.66357" y="0">a </tspan>
            <tspan class="SvgTicketClass-7" x="26.33936" y="0">Da Amora</tspan>
        </text>
    </g>
    <g id="Layer_4" data-name="Layer 4">
        <path class="SvgTicketClass-9" d="M150.379,67.8262a3.31506,3.31506,0,0,0-1.11583,1.44828,5.66032,5.66032,0,0,0-.138,3.70818,4.97728,4.97728,0,0,0,1.39409,2.44958,2.88,2.88,0,0,0,.90026.6207,2.29923,2.29923,0,0,0,1.85068.13442,1.90564,1.90564,0,0,0,.792-.58318,5.02508,5.02508,0,0,0,.86587-4.5729A7.00167,7.00167,0,0,0,153.89162,68.81a3.17229,3.17229,0,0,0-2.53762-1.30882A2.22166,2.22166,0,0,0,150.379,67.8262Z"/>
        <path class="SvgTicketClass-9" d="M142.38938,71.0994a3.09762,3.09762,0,0,0-.93169,2.766,6.21711,6.21711,0,0,0,.18856.79566,6.04425,6.04425,0,0,0,3.20209,3.789,3.92514,3.92514,0,0,0,1.83487.31149,2.25708,2.25708,0,0,0,1.708-1.71992,4.2973,4.2973,0,0,0-.26054-2.69722,6.35254,6.35254,0,0,0-.82721-1.51144,4.55457,4.55457,0,0,0-3.78835-2.12955A2.319,2.319,0,0,0,142.38938,71.0994Z"/>
        <path class="SvgTicketClass-9" d="M157.89405,72.41243a4.02331,4.02331,0,0,0-1.55286,2.27244,5.92692,5.92692,0,0,0-.00669,2.94595,3.55879,3.55879,0,0,0,.45655,1.21063,3.19194,3.19194,0,0,0,1.41482,1.327,1.927,1.927,0,0,0,1.074.18351,3.04294,3.04294,0,0,0,2.15686-1.82262,5.75537,5.75537,0,0,0,.4653-2.53992,6.0756,6.0756,0,0,0-.56264-2.22121,2.96027,2.96027,0,0,0-1.88543-1.63513A1.89676,1.89676,0,0,0,157.89405,72.41243Z"/>
        <path class="SvgTicketClass-9" d="M140.64967,79.662a2.21772,2.21772,0,0,0-1.14627,2.17084,4.87553,4.87553,0,0,0,.62479,1.925,5.4776,5.4776,0,0,0,2.51891,2.318,4.1218,4.1218,0,0,0,2.01232.37763,1.90311,1.90311,0,0,0,1.76586-1.29613,2.87411,2.87411,0,0,0-.09355-2.22313,3.90735,3.90735,0,0,0-.41611-.90035,5.38251,5.38251,0,0,0-2.49942-2.20917,4.12465,4.12465,0,0,0-1.96115-.40551A3.01393,3.01393,0,0,0,140.64967,79.662Z"/>
        <path class="SvgTicketClass-9" d="M151.04663,80.55628a6.64606,6.64606,0,0,0-3.14107,4.05012,14.58556,14.58556,0,0,0-.5259,4.16355,9.6637,9.6637,0,0,0,.33745,2.39905,2.54723,2.54723,0,0,0,2.21853,1.59348,2.50955,2.50955,0,0,0,1.10076-.26192,7.79952,7.79952,0,0,0,1.9985-1.48466,8.541,8.541,0,0,1,2.04449-1.54546,5.84127,5.84127,0,0,1,3.42462-.59311,5.291,5.291,0,0,0,2.40629-.20051,2.221,2.221,0,0,0,1.55578-2.19593,4.13246,4.13246,0,0,0-.54129-1.40641,9.96462,9.96462,0,0,0-2.255-2.23926,13.52889,13.52889,0,0,0-5.22147-2.74266,4.77117,4.77117,0,0,0-1.94581-.05043A7.07935,7.07935,0,0,0,151.04663,80.55628Z"/>
        <path class="SvgTicketClass-9" d="M177.61781,71.755a4.47926,4.47926,0,0,0-1.3715,4.51153,4.96615,4.96615,0,0,0,2.22145,3.596,2.36436,2.36436,0,0,0,2.41213.06124,4.00746,4.00746,0,0,0,.82826-.93527,5.02927,5.02927,0,0,0,.62717-3.24426,5.72037,5.72037,0,0,0-.4896-1.749,4.32022,4.32022,0,0,0-1.18659-1.7934,2.98051,2.98051,0,0,0-1.63414-.7787A2.04122,2.04122,0,0,0,177.61781,71.755Z"/>
        <path class="SvgTicketClass-9" d="M169.80472,74.90445a2.84374,2.84374,0,0,0-1.11543,2.516,6.35521,6.35521,0,0,0,1.14234,3.03394,4.79717,4.79717,0,0,0,3.88975,2.22947,1.90731,1.90731,0,0,0,.97966-.323,3.02394,3.02394,0,0,0,.9895-3.12267,7.08167,7.08167,0,0,0-.6632-1.78561,4.97754,4.97754,0,0,0-4.08812-2.84265,3.17047,3.17047,0,0,0-.89069.14438C170.03508,74.75952,169.92662,74.82934,169.80472,74.90445Z"/>
        <path class="SvgTicketClass-9" d="M185.37737,76.183a4.55828,4.55828,0,0,0-1.91153,4.70831,5.80884,5.80884,0,0,0,.4575,1.618,3.27643,3.27643,0,0,0,1.47733,1.53542,1.89222,1.89222,0,0,0,1.9674-.08232,4.63519,4.63519,0,0,0,1.72486-4.68929,6.47667,6.47667,0,0,0-.44281-1.49172,3.0991,3.0991,0,0,0-2.14026-1.77958A1.89059,1.89059,0,0,0,185.37737,76.183Z"/>
        <path class="SvgTicketClass-9" d="M167.72751,83.68517a2.22468,2.22468,0,0,0-.956,1.54854,4.62312,4.62312,0,0,0,.79979,2.74537,6.091,6.091,0,0,0,1.714,1.68311,3.72188,3.72188,0,0,0,3.6901.35869,1.922,1.922,0,0,0,.66418-.87852,2.9271,2.9271,0,0,0-.09962-2.446,5.4206,5.4206,0,0,0-2.199-2.63017,5.97643,5.97643,0,0,0-1.51555-.63507A2.50191,2.50191,0,0,0,167.72751,83.68517Z"/>
        <path class="SvgTicketClass-9" d="M178.24169,84.50229a6.60561,6.60561,0,0,0-3.17065,4.39957,13.23374,13.23374,0,0,0-.31616,5.12173,3.47687,3.47687,0,0,0,.232,1.05428,1.87224,1.87224,0,0,0,.322.59177,2.41978,2.41978,0,0,0,2.07446.99,1.92092,1.92092,0,0,0,.70905-.18169,6.67712,6.67712,0,0,0,2.26094-1.60726,8.05983,8.05983,0,0,1,2.02756-1.51939,6.15508,6.15508,0,0,1,3.513-.56574,4.55348,4.55348,0,0,0,2.43018-.26815,2.27353,2.27353,0,0,0,1.227-1.18523,2.021,2.021,0,0,0-.09322-1.8272c-.47224-1.053-1.495-2.06432-3.4993-3.45858a11.70142,11.70142,0,0,0-4.22642-2.03886,4.96182,4.96182,0,0,0-1.91818-.069A7.73646,7.73646,0,0,0,178.24169,84.50229Z"/>
    </g>
    <g id="Layer_5" data-name="Layer 5">
        <text class="SvgTicketClass-10" transform="translate(76.14702 70.70112)" >13</text>
    </g>
</svg>