<svg id="Layer_1" data-name="Layer 1" xmlns="http://www.w3.org/2000/svg" viewBox="0 0 300 300">
    <path d="M.75316,155.66841q0-58.05489.01879-116.10976C.795,23.94648,7.43213,17.21468,22.871,17.1866q55.97205-.10177,111.94438-.00692c15.16685.02321,22.07111,6.84156,22.08006,21.909q.06907,116.37015-.0035,232.74036c-.0095,14.976-7.12429,21.95161-22.10714,21.96235q-55.71187.04-111.42379-.00162C7.6947,293.77643.76376,286.89814.745,271.25728Q.67588,213.46293.72994,155.66841Zm8.81973,94.45348h138.627V40.87839H9.57289ZM66.56247,272.149a12.18618,12.18618,0,0,0,12.06988,12.37224A12.39717,12.39717,0,0,0,91.16356,272.514a12.60824,12.60824,0,0,0-12.426-12.69674A12.3245,12.3245,0,0,0,66.56247,272.149Z"/>
    <path d="M199.897,35.35552c-1.03489,4.20212-1.56182,6.34174-2.383,9.67607l-33.70484-19.3177L197.52589,6.18761c.74288,3.505,1.29515,6.11077,1.95394,9.21912,45.05823,8.71248,76.83679,30.85112,80.62609,81.30483-3.65384-8.73491-6.11467-17.59728-10.821-25.03969a77.11808,77.11808,0,0,0-18.11063-20.31679C244.16019,46.08,235.46251,42.47881,226.971,39.89087,218.40172,37.27925,209.1781,36.81479,199.897,35.35552Z"/>
    <path d="M276.93747,125.337q-54.9063-.06585-109.8126.01017c-2.174.00221-4.34775.39572-6.77707.63194v7.99042H275.4624V272.82458c-3.48274.17324-6.04767.41-8.61278.4119-34.00189.02619-68.00412.10069-102.00516-.05831a13.55645,13.55645,0,0,0-4.10416.52336v8.09128c.09458.00127.19019.00754.28477.00754q58.28916.02454,116.57823-.01152c14.19446-.0228,21.64839-7.69378,21.6583-22.08979q.03852-55.94714.00076-111.89436C299.253,132.78547,291.90405,125.35494,276.93747,125.337Z"/>
</svg>